# xmcd
# 
# Track frame offsets:
#     150
#     13717
#     27552
#     42080
#     56307
#     69552
#     91470
#     108647
#     121377
#     135355
#     154697
#     165017
# 
# Disc length: 2420
# 
# Revision: 0
# Processed by: cddbd v1.5.2PL0 Copyright (c) Steve Scherf et al.
# Submitted via: BonkEnc v1.0
# 
DISCID=9009720c
DTITLE=Die Peacemakers - Country für Kenner
DYEAR=1991
DGENRE=Country
TTITLE0=Next to you
TTITLE1=O.K Corral
TTITLE2=Poorhouse
TTITLE3=All Night long
TTITLE4=Desperatly
TTITLE5=Live and Learn
TTITLE6=Old Hippie
TTITLE7=Littlest Cowboy
TTITLE8=Missing you
TTITLE9=Dancy´s Dream
TTITLE10=No No Song
TTITLE11=Land of Navajo
EXTD=
EXTT0=
EXTT1=
EXTT2=
EXTT3=
EXTT4=
EXTT5=
EXTT6=
EXTT7=
EXTT8=
EXTT9=
EXTT10=
EXTT11=
PLAYORDER=
